<svg width="40" height="40" viewBox="0 0 40 40" fill="none" xmlns="http://www.w3.org/2000/svg">
  <circle cx="20" cy="20" r="20" fill="#D32F2F"/>
  <path d="M26.24 16.29l-3.35-1.39c-1.22-.51-2.58-.77-3.95-.77-4.14 0-7.85 2.5-9.37 6.32l-.4.99 3.03 1.21.39-.99c1.03-2.58 3.54-4.28 6.3-4.28 1.05 0 2.08.21 3.03.62l.85.38-1.57 3.82 2.1 2.1 3.25-7.9h-.13c-1.12-1.74-3.03-2.9-5.17-2.9-3.41 0-6.17 2.76-6.17 6.17 0 .85.17 1.66.48 2.4l-3.13-1.25C13.06 17.51 16.31 15 20 15c2.47 0 4.7 1.1 6.24 2.82v-1.53z" fill="white"/>
</svg>
