<svg width="40" height="40" viewBox="0 0 40 40" fill="none" xmlns="http://www.w3.org/2000/svg">
  <circle cx="20" cy="20" r="20" fill="#D32F2F"/>
  <path d="M22.7 19l-9.1-9.1c-.9-.9-2.5-.9-3.4 0-.9.9-.9 2.5 0 3.4L17.3 20l-7.1 7.1c-.9.9-.9 2.5 0 3.4.9.9 2.5.9 3.4 0L22.7 21c.4-.4.6-.9.6-1.5s-.2-1-.6-1.5zM27 12h-2v16h2V12z" fill="white"/>
  <path d="M12 12h16v2H12zm0 4h16v2H12zm0 4h16v2H12zm0 4h16v2H12z" fill="white" opacity="0.3"/> 
  <!-- Workshop Gear Icon representation -->
  <path d="M19.43 12.98c.04-.32.07-.64.07-.98 0-.34-.03-.66-.07-.98l2.11-1.65c.19-.15.24-.42.12-.64l-2-3.46c-.12-.22-.39-.3-.61-.22l-2.49 1c-.52-.4-1.08-.73-1.69-.98l-.38-2.65C14.46 2.18 14.25 2 14 2h-4c-.25 0-.46.18-.49.42l-.38 2.65c-.61.25-1.17.59-1.69.98l-2.49-1c-.23-.09-.49 0-.61.22l-2 3.46c-.13.22-.07.49.12.64l2.11 1.65c-.04.32-.07.65-.07.98 0 .33.03.66.07.98l-2.11 1.65c-.19.15-.24.42-.12.64l2 3.46c.12.22.39.3.61.22l2.49-1c.52.4 1.08.73 1.69.98l.38 2.65c.03.24.24.42.49.42h4c.25 0 .46-.18.49-.42l.38-2.65c.61-.25 1.17-.59 1.69-.98l2.49 1c.23.09.49 0 .61-.22l2-3.46c.12-.22.07-.49-.12-.64l-2.11-1.65zM12 15.5c-1.93 0-3.5-1.57-3.5-3.5s1.57-3.5 3.5-3.5 3.5 1.57 3.5 3.5-1.57 3.5-3.5 3.5z" fill="white"/>
</svg>
